HIERARCHY
ROOT Hips
{
  OFFSET 5.80788e-005 67.184 3.4734
  CHANNELS 6 Xposition Yposition Zposition Zrotation Xrotation Yrotation
  JOINT Chest
  {
    OFFSET 0 8.7983 -4.7612
    CHANNELS 6 Xposition Yposition Zposition Zrotation Xrotation Yrotation
    JOINT Chest2
    {
      OFFSET 0 8.0291 0.4195
      CHANNELS 6 Xposition Yposition Zposition Zrotation Xrotation Yrotation
      JOINT Chest3
      {
        OFFSET 0 9.9351 -2.2114
        CHANNELS 6 Xposition Yposition Zposition Zrotation Xrotation Yrotation
        JOINT Neck
        {
          OFFSET 0 22.3885 -0.4656
          CHANNELS 6 Xposition Yposition Zposition Zrotation Xrotation Yrotation
          JOINT Head
          {
            OFFSET -0.0001 12.643 3.4389
            CHANNELS 6 Xposition Yposition Zposition Zrotation Xrotation Yrotation
            End Site
            {
              OFFSET 0.0001 17.6655 0.5274
            }
          }
        }
        JOINT LeftCollar
        {
          OFFSET 2.2603 21.606 7.4023
          CHANNELS 6 Xposition Yposition Zposition Zrotation Xrotation Yrotation
          JOINT LeftShoulder
          {
            OFFSET 13.5163 -1.1332 -5.0146
            CHANNELS 6 Xposition Yposition Zposition Zrotation Xrotation Yrotation
            JOINT LeftElbow
            {
              OFFSET -0.0995 -28.05 -0.2431
              CHANNELS 6 Xposition Yposition Zposition Zrotation Xrotation Yrotation
              JOINT LeftWrist
              {
                OFFSET 0.0679 -23.3996 -0.1402
                CHANNELS 6 Xposition Yposition Zposition Zrotation Xrotation Yrotation
                JOINT LeftFinger1
                {
                  OFFSET 0.7932 -9.069 2.5189
                  CHANNELS 6 Xposition Yposition Zposition Zrotation Xrotation Yrotation
                  JOINT LeftFinger11
                  {
                    OFFSET -0.8272 -3.3923 0.5977
                    CHANNELS 6 Xposition Yposition Zposition Zrotation Xrotation Yrotation
                    JOINT LeftFinger12
                    {
                      OFFSET -0.5649 -2.3158 0.4082
                      CHANNELS 6 Xposition Yposition Zposition Zrotation Xrotation Yrotation
                      End Site
                      {
                        OFFSET -0.4919 -1.6479 0.2673
                      }
                    }
                  }
                }
                JOINT LeftFinger2
                {
                  OFFSET 0.9159 -9.2044 0.2193
                  CHANNELS 6 Xposition Yposition Zposition Zrotation Xrotation Yrotation
                  JOINT LeftFinger21
                  {
                    OFFSET 0.0117 -4.1944 -0.0248
                    CHANNELS 6 Xposition Yposition Zposition Zrotation Xrotation Yrotation
                    JOINT LeftFinger22
                    {
                      OFFSET 0.0071 -2.3249 -0.0142
                      CHANNELS 6 Xposition Yposition Zposition Zrotation Xrotation Yrotation
                      End Site
                      {
                        OFFSET -0.1475 -2.0882 0.0028
                      }
                    }
                  }
                }
                JOINT LeftFinger3
                {
                  OFFSET 0.6113 -8.7231 -2.0637
                  CHANNELS 6 Xposition Yposition Zposition Zrotation Xrotation Yrotation
                  JOINT LeftFinger31
                  {
                    OFFSET -0.1927 -3.8059 -0.2383
                    CHANNELS 6 Xposition Yposition Zposition Zrotation Xrotation Yrotation
                    JOINT LeftFinger32
                    {
                      OFFSET -0.1091 -2.1688 -0.1362
                      CHANNELS 6 Xposition Yposition Zposition Zrotation Xrotation Yrotation
                      End Site
                      {
                        OFFSET -0.2358 -1.9176 -0.0906
                      }
                    }
                  }
                }
                JOINT LeftFinger4
                {
                  OFFSET -0.6151 -8.0947 -3.5641
                  CHANNELS 6 Xposition Yposition Zposition Zrotation Xrotation Yrotation
                  JOINT LeftFinger41
                  {
                    OFFSET -0.4882 -2.341 -0.6462
                    CHANNELS 6 Xposition Yposition Zposition Zrotation Xrotation Yrotation
                    JOINT LeftFinger42
                    {
                      OFFSET -0.3575 -1.7167 -0.4742
                      CHANNELS 6 Xposition Yposition Zposition Zrotation Xrotation Yrotation
                      End Site
                      {
                        OFFSET -0.4187 -1.5237 -0.3496
                      }
                    }
                  }
                }
                JOINT LeftFinger0
                {
                  OFFSET -1.42 -1.8761 1.4223
                  CHANNELS 6 Xposition Yposition Zposition Zrotation Xrotation Yrotation
                  JOINT LeftFinger01
                  {
                    OFFSET -1.1471 -3.4929 2.6334
                    CHANNELS 6 Xposition Yposition Zposition Zrotation Xrotation Yrotation
                    JOINT LeftFinger02
                    {
                      OFFSET -0.823 -2.3 1.6571
                      CHANNELS 6 Xposition Yposition Zposition Zrotation Xrotation Yrotation
                      End Site
                      {
                        OFFSET -0.5822 -1.6914 1.1582
                      }
                    }
                  }
                }
              }
            }
          }
        }
        JOINT RightCollar
        {
          OFFSET -2.2603 21.606 7.4023
          CHANNELS 6 Xposition Yposition Zposition Zrotation Xrotation Yrotation
          JOINT RightShoulder
          {
            OFFSET -13.5187 -1.1334 -5.0155
            CHANNELS 6 Xposition Yposition Zposition Zrotation Xrotation Yrotation
            JOINT RightElbow
            {
              OFFSET 0.0994 -28.0499 -0.2431
              CHANNELS 6 Xposition Yposition Zposition Zrotation Xrotation Yrotation
              JOINT RightWrist
              {
                OFFSET -0.0679 -23.3996 -0.1402
                CHANNELS 6 Xposition Yposition Zposition Zrotation Xrotation Yrotation
                JOINT RightFinger1
                {
                  OFFSET -0.7932 -9.0691 2.5189
                  CHANNELS 6 Xposition Yposition Zposition Zrotation Xrotation Yrotation
                  JOINT RightFinger11
                  {
                    OFFSET 0.8272 -3.3923 0.5977
                    CHANNELS 6 Xposition Yposition Zposition Zrotation Xrotation Yrotation
                    JOINT RightFinger12
                    {
                      OFFSET 0.565 -2.3158 0.4082
                      CHANNELS 6 Xposition Yposition Zposition Zrotation Xrotation Yrotation
                      End Site
                      {
                        OFFSET 0.4919 -1.6479 0.2673
                      }
                    }
                  }
                }
                JOINT RightFinger2
                {
                  OFFSET -0.916 -9.2044 0.2193
                  CHANNELS 6 Xposition Yposition Zposition Zrotation Xrotation Yrotation
                  JOINT RightFinger21
                  {
                    OFFSET -0.0117 -4.1944 -0.0248
                    CHANNELS 6 Xposition Yposition Zposition Zrotation Xrotation Yrotation
                    JOINT RightFinger22
                    {
                      OFFSET -0.0071 -2.3249 -0.0142
                      CHANNELS 6 Xposition Yposition Zposition Zrotation Xrotation Yrotation
                      End Site
                      {
                        OFFSET 0.1475 -2.0882 0.0028
                      }
                    }
                  }
                }
                JOINT RightFinger3
                {
                  OFFSET -0.6113 -8.7231 -2.0637
                  CHANNELS 6 Xposition Yposition Zposition Zrotation Xrotation Yrotation
                  JOINT RightFinger31
                  {
                    OFFSET 0.1927 -3.8059 -0.2383
                    CHANNELS 6 Xposition Yposition Zposition Zrotation Xrotation Yrotation
                    JOINT RightFinger32
                    {
                      OFFSET 0.1091 -2.1688 -0.1362
                      CHANNELS 6 Xposition Yposition Zposition Zrotation Xrotation Yrotation
                      End Site
                      {
                        OFFSET 0.2358 -1.9176 -0.0906
                      }
                    }
                  }
                }
                JOINT RightFinger4
                {
                  OFFSET 0.6151 -8.0947 -3.564
                  CHANNELS 6 Xposition Yposition Zposition Zrotation Xrotation Yrotation
                  JOINT RightFinger41
                  {
                    OFFSET 0.4882 -2.341 -0.6462
                    CHANNELS 6 Xposition Yposition Zposition Zrotation Xrotation Yrotation
                    JOINT RightFinger42
                    {
                      OFFSET 0.3574 -1.7166 -0.4742
                      CHANNELS 6 Xposition Yposition Zposition Zrotation Xrotation Yrotation
                      End Site
                      {
                        OFFSET 0.4187 -1.5237 -0.3496
                      }
                    }
                  }
                }
                JOINT RightFinger0
                {
                  OFFSET 1.4199 -1.8761 1.4221
                  CHANNELS 6 Xposition Yposition Zposition Zrotation Xrotation Yrotation
                  JOINT RightFinger01
                  {
                    OFFSET 1.1472 -3.4929 2.6336
                    CHANNELS 6 Xposition Yposition Zposition Zrotation Xrotation Yrotation
                    JOINT RightFinger02
                    {
                      OFFSET 0.8229 -2.3 1.6571
                      CHANNELS 6 Xposition Yposition Zposition Zrotation Xrotation Yrotation
                      End Site
                      {
                        OFFSET 0.5822 -1.6914 1.1582
                      }
                    }
                  }
                }
              }
            }
          }
        }
      }
    }
  }
  JOINT RightHip
  {
    OFFSET -9.412 3.9771 -0.7758
    CHANNELS 6 Xposition Yposition Zposition Zrotation Xrotation Yrotation
    JOINT RightKnee
    {
      OFFSET -0.7531 -40.938 0
      CHANNELS 6 Xposition Yposition Zposition Zrotation Xrotation Yrotation
      JOINT RightAnkle
      {
        OFFSET 0 -40.1986 0
        CHANNELS 6 Xposition Yposition Zposition Zrotation Xrotation Yrotation
        JOINT RightToe
        {
          OFFSET 0 -4.4182 9.239
          CHANNELS 6 Xposition Yposition Zposition Zrotation Xrotation Yrotation
          End Site
          {
            OFFSET 0 0 6.1981
          }
        }
      }
    }
  }
  JOINT LeftHip
  {
    OFFSET 9.4119 3.9773 -0.7758
    CHANNELS 6 Xposition Yposition Zposition Zrotation Xrotation Yrotation
    JOINT LeftKnee
    {
      OFFSET 0.7532 -40.9383 0
      CHANNELS 6 Xposition Yposition Zposition Zrotation Xrotation Yrotation
      JOINT LeftAnkle
      {
        OFFSET 0 -40.1986 0
        CHANNELS 6 Xposition Yposition Zposition Zrotation Xrotation Yrotation
        JOINT LeftToe
        {
          OFFSET 0 -4.4182 9.239
          CHANNELS 6 Xposition Yposition Zposition Zrotation Xrotation Yrotation
          End Site
          {
            OFFSET 0 0 6.1981
          }
        }
      }
    }
  }
}
MOTION
Frames:	4
Frame Time:	0.0333333
0.843887 64.904 27.1687 2.94424e-007 21.4492 -8.11688e-008 -1.11022e-016 8.7983 -4.7612 0.345346 1.19035 -0.486181 2.22045e-016 8.0291 0.4195 0.701011 2.37768 -0.979848 0 9.9351 -2.2114 0.701011 2.37768 -0.979848 4.44089e-016 22.3885 -0.4656 -3.79217e-005 -1.33713 5.63128e-005 -0.0001 12.643 3.4389 -3.21459e-008 -10.147 5.24219e-007 2.2603 21.606 7.4023 -23.9789 31.0831 -18.7251 13.5163 -1.1332 -5.0146 58.9067 -20.9085 83.2644 -0.0995 -28.05 -0.2431 -86.9021 -3.4063 10.1695 0.0679 -23.3996 -0.1402 4.75703 -41.1078 -132.461 0.7932 -9.069 2.5189 -3.65046e-007 2.80672e-006 -5.87525e-006 -0.8272 -3.3923 0.5977 6.36111e-015 1.59028e-015 1.59028e-015 -0.5649 -2.3158 0.4082 0 0 -2.38542e-015 0.9159 -9.2044 0.2193 -3.65046e-007 2.80672e-006 -5.87525e-006 0.0117 -4.1944 -0.0248 -0.0128136 0.00232805 9.08697e-005 0.0071 -2.3249 -0.0142 -0 0 3.18055e-015 0.6113 -8.7231 -2.0637 -3.65046e-007 2.80672e-006 -5.87525e-006 -0.1927 -3.8059 -0.2383 -0.0160804 0.00301138 0.000871652 -0.1091 -2.1688 -0.1362 6.36111e-015 0 7.95139e-016 -0.6151 -8.0947 -3.5641 -3.65046e-007 2.80672e-006 -5.87525e-006 -0.4882 -2.341 -0.6462 -0.0126106 0.0031183 0.00283266 -0.3575 -1.7167 -0.4742 -3.18055e-015 -3.18055e-015 1.59028e-015 -1.42 -1.8761 1.4223 -3.65046e-007 2.80672e-006 -5.87525e-006 -1.1471 -3.4929 2.6334 6.36111e-015 1.59028e-015 1.59028e-015 -0.823 -2.3 1.6571 0 0 -2.38542e-015 -2.2603 21.606 7.4023 22.0577 29.2632 14.0494 -13.5187 -1.1334 -5.0155 -55.9251 -24.3826 -79.8827 0.0994 -28.0499 -0.2431 86.8106 -2.33695 -8.927 -0.0679 -23.3996 -0.1402 -4.35288 -38.0054 134.143 -0.7932 -9.0691 2.5189 6.62086e-032 1.59028e-015 -2.38542e-015 0.8272 -3.3923 0.5977 3.18055e-015 0 -1.59028e-015 0.565 -2.3158 0.4082 -3.1002e-006 4.42104e-007 -6.56742e-007 -0.916 -9.2044 0.2193 6.62086e-032 1.59028e-015 -2.38542e-015 -0.0117 -4.1944 -0.0248 0.0129283 0.00229739 -7.96916e-005 -0.0071 -2.3249 -0.0142 -3.18055e-015 0 2.38542e-015 -0.6113 -8.7231 -2.0637 6.62086e-032 1.59028e-015 -2.38542e-015 0.1927 -3.8059 -0.2383 0.0163614 0.00303511 -0.000877617 0.1091 -2.1688 -0.1362 -3.18055e-015 -3.18055e-015 -3.97569e-015 0.6151 -8.0947 -3.564 6.62086e-032 1.59028e-015 -2.38542e-015 0.4882 -2.341 -0.6462 0.0145941 0.00366978 -0.0032587 0.3574 -1.7166 -0.4742 -4.73953e-006 -1.01462e-006 -3.92561e-006 1.4199 -1.8761 1.4221 6.62086e-032 1.59028e-015 -2.38542e-015 1.1472 -3.4929 2.6336 3.18055e-015 0 -1.59028e-015 0.8229 -2.3 1.6571 -3.1002e-006 4.42104e-007 -6.56742e-007 -9.412 3.9771 -0.7758 -24.913 -41.829 -26.2648 -0.7531 -40.938 0 5.29062 31.6902 -4.7928 -5.32907e-015 -40.1986 0 -4.54096 4.94939 -10.958 0 -4.4182 9.239 1.59028e-015 -1.74166e-006 6.36111e-015 9.4119 3.9773 -0.7758 23.8676 -42.3768 27.1912 0.7532 -40.9383 0 -5.28653 33.1158 4.92291 -3.55271e-015 -40.1986 0 6.13474 3.23678 10.036 3.55271e-015 -4.4182 9.239 3.97569e-015 -3.4323e-008 -0 
0.843902 64.8998 26.9112 1.82159e-007 21.9001 -2.18333e-007 0 8.7983 -4.7612 0.34644 1.05976 -0.484371 0 8.0291 0.4195 0.702009 2.11653 -0.975391 4.44089e-016 9.9351 -2.2114 0.702012 2.11653 -0.975396 4.44089e-016 22.3885 -0.4656 2.08692e-005 -2.02082 -3.05773e-005 -0.0001 12.643 3.4389 6.83527e-008 -11.1959 1.55288e-007 2.2603 21.606 7.4023 -23.9789 31.0834 -18.7251 13.5163 -1.1332 -5.0146 58.9067 -20.9085 83.2644 -0.0995 -28.05 -0.2431 -86.9021 -3.4062 10.1694 0.0679 -23.3996 -0.1402 5.10815 -41.0078 -132.226 0.7932 -9.069 2.5189 -4.26843e-006 2.98722e-006 4.99125e-006 -0.8272 -3.3923 0.5977 -3.18055e-015 3.18055e-015 1.59028e-015 -0.5649 -2.3158 0.4082 -0 0 9.54166e-015 0.9159 -9.2044 0.2193 -4.26843e-006 2.98722e-006 4.99125e-006 0.0117 -4.1944 -0.0248 -0.0127833 0.00231979 8.27407e-005 0.0071 -2.3249 -0.0142 1.59028e-014 4.77083e-015 -6.36111e-015 0.6113 -8.7231 -2.0637 -4.26843e-006 2.98722e-006 4.99125e-006 -0.1927 -3.8059 -0.2383 -0.0159709 0.00298888 0.000862054 -0.1091 -2.1688 -0.1362 -3.18055e-015 0 -3.97569e-015 -0.6151 -8.0947 -3.5641 -4.26843e-006 2.98722e-006 4.99125e-006 -0.4882 -2.341 -0.6462 -0.0125256 0.00309883 0.00281124 -0.3575 -1.7167 -0.4742 -0 -3.18055e-015 -0 -1.42 -1.8761 1.4223 -4.26843e-006 2.98722e-006 4.99125e-006 -1.1471 -3.4929 2.6334 -3.18055e-015 3.18055e-015 1.59028e-015 -0.823 -2.3 1.6571 -0 0 9.54166e-015 -2.2603 21.606 7.4023 22.0579 29.2634 14.0493 -13.5187 -1.1334 -5.0155 -55.9251 -24.3826 -79.8827 0.0994 -28.0499 -0.2431 86.8106 -2.33693 -8.92702 -0.0679 -23.3996 -0.1402 -4.68962 -37.911 133.936 -0.7932 -9.0691 2.5189 -6.36111e-015 -3.18055e-015 -3.97569e-015 0.8272 -3.3923 0.5977 -1.98626e-031 -1.59028e-015 -7.15625e-015 0.565 -2.3158 0.4082 3.18055e-015 -3.18055e-015 -3.18055e-015 -0.916001 -9.2044 0.2193 -6.36111e-015 -3.18055e-015 -3.97569e-015 -0.0117 -4.1944 -0.0248 0.0129066 0.00231027 -7.6559e-005 -0.0071 -2.3249 -0.0142 3.97252e-031 1.59028e-015 -1.43125e-014 -0.6113 -8.7231 -2.0637 -6.36111e-015 -3.18055e-015 -3.97569e-015 0.1927 -3.8059 -0.2383 0.0163185 0.00303269 -0.000872694 0.1091 -2.1688 -0.1362 -3.18055e-015 0 7.95139e-016 0.6151 -8.0947 -3.564 -6.36111e-015 -3.18055e-015 -3.97569e-015 0.4882 -2.341 -0.6462 0.014568 0.00366922 -0.00324639 0.3574 -1.7166 -0.4742 -3.18055e-015 0 -3.97569e-015 1.4199 -1.8761 1.4221 -6.36111e-015 -3.18055e-015 -3.97569e-015 1.1472 -3.4929 2.6336 -1.98626e-031 -1.59028e-015 -7.15625e-015 0.8229 -2.3 1.6571 3.18055e-015 -3.18055e-015 -3.18055e-015 -9.412 3.9771 -0.7758 -24.8997 -42.4742 -25.8027 -0.7531 -40.938 0 5.29458 31.7065 -4.79701 5.32907e-015 -40.1986 0 -4.35582 5.17014 -11.5692 0 -4.4182 9.239 1.20575e-006 -1.26665e-006 -4.35864e-006 9.4119 3.9773 -0.7758 23.8652 -43.0223 26.799 0.7532 -40.9383 0 -5.28949 33.1304 4.92751 -3.55271e-015 -40.1986 0 5.98929 3.46506 10.5734 0 -4.4182 9.239 3.36495e-006 1.78088e-006 2.57887e-006 
0.843921 64.8961 26.6537 2.70412e-007 22.351 -2.76596e-007 0 8.7983 -4.7612 0.347551 0.929249 -0.482577 0 8.0291 0.4195 0.703055 1.85553 -0.970972 0 9.9351 -2.2114 0.703055 1.85552 -0.970972 0 22.3885 -0.4656 -9.20635e-006 -2.70483 1.43024e-005 -0.0001 12.643 3.4389 -2.68042e-007 -12.2448 4.99578e-007 2.2603 21.606 7.4023 -23.9789 31.0833 -18.7251 13.5163 -1.1332 -5.0146 58.9067 -20.9085 83.2644 -0.0995 -28.05 -0.2431 -86.9021 -3.40629 10.1694 0.0679 -23.3996 -0.1402 5.45816 -40.9066 -131.992 0.7932 -9.069 2.5189 9.54166e-015 -1.59028e-015 -4.77083e-015 -0.8272 -3.3923 0.5977 -0 0 5.56597e-015 -0.5649 -2.3158 0.4082 3.18055e-015 -3.18055e-015 -7.95139e-016 0.9159 -9.2044 0.2193 9.54166e-015 -1.59028e-015 -4.77083e-015 0.0117 -4.1944 -0.0248 -0.012818 0.00232785 8.62064e-005 0.0071 -2.3249 -0.0142 0 0 -7.95139e-016 0.6113 -8.7231 -2.0637 9.54166e-015 -1.59028e-015 -4.77083e-015 -0.1927 -3.8059 -0.2383 -0.0160883 0.00301349 0.000868534 -0.1091 -2.1688 -0.1362 9.54166e-015 0 5.56597e-015 -0.6151 -8.0947 -3.5641 9.54166e-015 -1.59028e-015 -4.77083e-015 -0.4882 -2.341 -0.6462 -0.0125744 0.0031253 0.0028287 -0.3575 -1.7167 -0.4742 -0 0 3.97569e-015 -1.42 -1.8761 1.4223 9.54166e-015 -1.59028e-015 -4.77083e-015 -1.1471 -3.4929 2.6334 -0 0 5.56597e-015 -0.823 -2.3 1.6571 3.18055e-015 -3.18055e-015 -7.95139e-016 -2.2603 21.606 7.4023 22.0578 29.2633 14.0493 -13.5187 -1.1334 -5.0155 -55.9252 -24.3826 -79.8827 0.0994 -28.0499 -0.2431 86.8106 -2.3369 -8.92686 -0.0679 -23.3996 -0.1402 -5.02578 -37.8157 133.731 -0.7932 -9.0691 2.5189 3.18055e-015 -1.59028e-015 3.18055e-015 0.8272 -3.3923 0.5977 3.18055e-015 0 -0 0.565 -2.3158 0.4082 7.81369e-006 5.60569e-007 5.59381e-006 -0.916 -9.2044 0.2193 3.18055e-015 -1.59028e-015 3.18055e-015 -0.0117 -4.1944 -0.0248 0.0129858 0.00231625 -7.49036e-005 -0.0071 -2.3249 -0.0142 -4.41391e-031 -3.18055e-015 -7.95139e-015 -0.6113 -8.7231 -2.0637 3.18055e-015 -1.59028e-015 3.18055e-015 0.1927 -3.8059 -0.2383 0.016288 0.00302378 -0.000869091 0.1091 -2.1688 -0.1362 1.63983e-006 2.2113e-006 3.27051e-006 0.6151 -8.0947 -3.564 3.18055e-015 -1.59028e-015 3.18055e-015 0.4882 -2.341 -0.6462 0.0146491 0.00369845 -0.003273 0.3574 -1.7166 -0.4742 1.32417e-031 1.59028e-015 -4.77083e-015 1.4199 -1.8761 1.4221 3.18055e-015 -1.59028e-015 3.18055e-015 1.1472 -3.4929 2.6336 3.18055e-015 0 -0 0.8229 -2.3 1.6571 7.81369e-006 5.60569e-007 5.59381e-006 -9.412 3.9771 -0.7758 -24.8785 -43.1196 -25.3354 -0.7531 -40.938 0 5.29819 31.7231 -4.80115 -1.77636e-015 -40.1986 0 -4.16825 5.38881 -12.1813 3.55271e-015 -4.4182 9.239 -4.04055e-007 3.95341e-007 1.45252e-006 9.4119 3.9773 -0.7758 23.8573 -43.6674 26.403 0.7532 -40.9383 0 -5.29325 33.1453 4.93211 -3.55271e-015 -40.1986 7.10543e-015 5.84175 3.6916 11.1116 -3.55271e-015 -4.4182 9.239 3.18055e-015 7.95139e-015 -0 
0.843947 64.8928 26.3961 5.88318e-008 22.8019 -3.59623e-007 0 8.7983 -4.7612 0.348637 0.798729 -0.480743 -2.22045e-016 8.0291 0.4195 0.704063 1.59446 -0.966472 0 9.9351 -2.2114 0.704067 1.59449 -0.966478 0 22.3885 -0.4656 5.06515e-005 -3.38858 -7.65665e-005 -0.0001 12.643 3.4389 -5.08097e-008 -13.2936 5.3663e-007 2.2603 21.606 7.4023 -23.9788 31.0835 -18.7251 13.5163 -1.1332 -5.0146 58.9067 -20.9085 83.2644 -0.0995 -28.05 -0.2431 -86.9021 -3.40623 10.1695 0.0679 -23.3996 -0.1402 5.80699 -40.8046 -131.759 0.7932 -9.069 2.5189 3.18055e-015 -1.59028e-015 1.03368e-014 -0.8272 -3.3923 0.5977 3.18055e-015 1.59028e-015 -2.38542e-015 -0.5649 -2.3158 0.4082 3.18055e-015 1.59028e-015 3.97569e-015 0.9159 -9.2044 0.2193 3.18055e-015 -1.59028e-015 1.03368e-014 0.0117 -4.1944 -0.0248 -0.0127949 0.00232 8.72485e-005 0.0071 -2.3249 -0.0142 0 0 -1.59028e-015 0.6113 -8.7231 -2.0637 3.18055e-015 -1.59028e-015 1.03368e-014 -0.1927 -3.8059 -0.2383 -0.0160543 0.00298892 0.000852976 -0.1091 -2.1688 -0.1362 -3.18055e-015 1.59028e-015 -7.15625e-015 -0.6151 -8.0947 -3.5641 3.18055e-015 -1.59028e-015 1.03368e-014 -0.4882 -2.341 -0.6462 -0.0125302 0.00311668 0.0028168 -0.3575 -1.7167 -0.4742 0 0 -3.18055e-015 -1.42 -1.8761 1.4223 3.18055e-015 -1.59028e-015 1.03368e-014 -1.1471 -3.4929 2.6334 3.18055e-015 1.59028e-015 -2.38542e-015 -0.823 -2.3 1.6571 3.18055e-015 1.59028e-015 3.97569e-015 -2.2603 21.606 7.4023 22.058 29.2634 14.0492 -13.5187 -1.1334 -5.0155 -55.9252 -24.3826 -79.8827 0.0994 -28.0499 -0.2431 86.8106 -2.33692 -8.92699 -0.0679 -23.3996 -0.1402 -5.36075 -37.7193 133.527 -0.7932 -9.0691 2.5189 9.54166e-015 0 -7.95139e-016 0.8272 -3.3923 0.5977 -1.54487e-031 -1.59028e-015 -5.56597e-015 0.565 -2.3158 0.4082 3.18055e-015 0 -8.74653e-015 -0.916 -9.2044 0.2193 9.54166e-015 0 -7.95139e-016 -0.0117 -4.1944 -0.0248 0.0129576 0.00232561 -9.37985e-005 -0.0071 -2.3249 -0.0142 4.62983e-006 -7.50168e-007 1.99673e-006 -0.6113 -8.7231 -2.0637 9.54166e-015 0 -7.95139e-016 0.1927 -3.8059 -0.2383 0.0163643 0.00303959 -0.000872433 0.1091 -2.1688 -0.1362 -3.18055e-015 -4.77083e-015 -4.77083e-015 0.6151 -8.0947 -3.564 9.54166e-015 0 -7.95139e-016 0.4882 -2.341 -0.6462 0.0146091 0.00369629 -0.00326758 0.3574 -1.7166 -0.4742 3.1153e-006 5.20921e-006 -1.35184e-006 1.4199 -1.8761 1.4221 9.54166e-015 0 -7.95139e-016 1.1472 -3.4929 2.6336 -1.54487e-031 -1.59028e-015 -5.56597e-015 0.8229 -2.3 1.6571 3.18055e-015 0 -8.74653e-015 -9.412 3.9771 -0.7758 -24.8504 -43.7647 -24.8632 -0.7531 -40.938 0 5.30239 31.7404 -4.80535 1.77636e-015 -40.1986 0 -3.97834 5.60498 -12.7943 0 -4.4182 9.239 1.59028e-015 9.0665e-007 -1.27222e-014 9.4119 3.9773 -0.7758 23.8429 -44.3125 26.0025 0.7532 -40.9383 7.10543e-015 -5.29698 33.1605 4.9367 1.77636e-015 -40.1986 7.10543e-015 5.69206 3.91661 11.6505 0 -4.4182 9.239 -3.27762e-006 3.93337e-008 -4.15381e-007 
